<svg width="100" height="71" viewBox="0 0 100 71" fill="none" xmlns="http://www.w3.org/2000/svg">
<path d="M33 14.0625V4.375C33 3.85417 33.1823 3.41146 33.5469 3.04688C33.9115 2.68229 34.3542 2.5 34.875 2.5H44.5625C45.1875 2.5 45.5 2.8125 45.5 3.4375V6.5625C45.5 7.1875 45.1875 7.5 44.5625 7.5H38V14.0625C38 14.6875 37.6875 15 37.0625 15H33.9375C33.3125 15 33 14.6875 33 14.0625ZM55.5 3.4375C55.5 2.8125 55.8125 2.5 56.4375 2.5H66.125C66.6458 2.5 67.0885 2.68229 67.4531 3.04688C67.8177 3.41146 68 3.85417 68 4.375V14.0625C68 14.6875 67.6875 15 67.0625 15H63.9375C63.3125 15 63 14.6875 63 14.0625V7.5H56.4375C55.8125 7.5 55.5 7.1875 55.5 6.5625V3.4375ZM67.0625 25C67.6875 25 68 25.3125 68 25.9375V35.625C68 36.1458 67.8177 36.5885 67.4531 36.9531C67.0885 37.3177 66.6458 37.5 66.125 37.5H56.4375C55.8125 37.5 55.5 37.1875 55.5 36.5625V33.4375C55.5 32.8125 55.8125 32.5 56.4375 32.5H63V25.9375C63 25.3125 63.3125 25 63.9375 25H67.0625ZM45.5 36.5625C45.5 37.1875 45.1875 37.5 44.5625 37.5H34.875C34.3542 37.5 33.9115 37.3177 33.5469 36.9531C33.1823 36.5885 33 36.1458 33 35.625V25.9375C33 25.3125 33.3125 25 33.9375 25H37.0625C37.6875 25 38 25.3125 38 25.9375V32.5H44.5625C45.1875 32.5 45.5 32.8125 45.5 33.4375V36.5625Z" fill="#333333"/>
<path d="M3.59344 65.18C5.43844 65.18 6.44344 64.265 7.07344 63.035L11.1384 54.995H8.22844L6.05344 59.675L3.89344 54.995H0.983437L4.59844 62.15C4.29844 62.66 4.01344 62.9 3.36844 62.9C2.87344 62.9 2.42344 62.66 2.07844 62.405L1.05844 64.415C1.67344 64.91 2.63344 65.18 3.59344 65.18ZM18.7275 65C20.6925 65 21.6675 63.74 21.6675 62.285C21.6675 61.025 20.8275 60.005 19.7625 59.84C20.7075 59.63 21.4725 58.79 21.4725 57.545C21.4725 56.285 20.5275 54.995 18.5475 54.995H12.8775V65H18.7275ZM17.9625 58.835H15.4575V57.17H17.9625C18.4875 57.17 18.8475 57.515 18.8475 57.995C18.8475 58.49 18.4875 58.835 17.9625 58.835ZM18.0525 62.825H15.4575V61.025H18.0525C18.6825 61.025 19.0425 61.43 19.0425 61.925C19.0425 62.465 18.6675 62.825 18.0525 62.825ZM31.4079 65V62.75H26.6529V61.055H31.3029V58.805H26.6529V57.245H31.4079V54.995H24.0729V65H31.4079ZM33.3509 65.18C35.5409 65.18 37.2509 64.31 37.7309 60.26L38.0909 57.245H40.6409V65H43.2209V54.995H35.7659L35.1659 60.065C34.8809 62.345 34.2809 62.9 33.3509 62.9V65.18ZM48.514 65L52.729 58.82V65H55.324V54.995H52.654L48.604 60.89V54.995H46.024V65H48.514ZM60.5125 54.995H57.9025V57.98C57.9025 60.245 59.1175 61.76 61.7575 61.76C62.4625 61.76 63.0925 61.655 63.7975 61.49V65H66.3775V54.995H63.7975V59.225C63.3325 59.405 62.7625 59.51 62.1175 59.51C61.1425 59.51 60.5125 59.12 60.5125 57.98V54.995ZM71.6664 65L75.8814 58.82V65H78.4764V54.995H75.8064L71.7564 60.89V54.995H69.1764V65H71.6664ZM86.0949 65V57.245H88.8849V54.995H80.7099V57.245H83.5149V65H86.0949ZM91.1129 54.995V65H96.1229C98.3729 65 99.6029 63.485 99.6029 61.67C99.6029 59.87 98.3729 58.355 96.1229 58.355H93.6929V54.995H91.1129ZM95.7779 60.605C96.4679 60.605 96.9779 60.995 96.9779 61.67C96.9779 62.36 96.4679 62.75 95.7779 62.75H93.6929V60.605H95.7779Z" fill="#333333"/>
</svg>
