<?xml version="1.0" encoding="utf-8"?>
<!-- Generator: Adobe Illustrator 17.1.0, SVG Export Plug-In . SVG Version: 6.00 Build 0)  -->
<!DOCTYPE svg PUBLIC "-//W3C//DTD SVG 1.1//EN" "http://www.w3.org/Graphics/SVG/1.1/DTD/svg11.dtd">
<svg version="1.1" id="Layer_1" xmlns="http://www.w3.org/2000/svg" xmlns:xlink="http://www.w3.org/1999/xlink" x="0px" y="0px"
	 viewBox="0 0 841.9 595.3" enable-background="new 0 0 841.9 595.3" xml:space="preserve">
<g>
	<g>
		<path fill="#FFFFFF" d="M709.1,274.5l-215-215c-6.1-6.1-14.3-9.5-23-9.5c-8.7,0-16.9,3.4-23,9.5l-19.5,19.5
			c-6.1,6.1-9.5,14.3-9.5,23c0,8.7,3.4,17.2,9.5,23.3l125.4,125.7H155.5c-18,0-32.2,14.1-32.2,32v27.6c0,18,14.2,33.5,32.2,33.5
			h399.9L428.5,470.6c-6.1,6.1-9.5,14.1-9.5,22.8c0,8.7,3.4,16.8,9.5,22.9l19.5,19.5c6.1,6.1,14.3,9.5,23,9.5c8.7,0,16.9-3.4,23-9.5
			l215-215c6.2-6.2,9.5-14.4,9.5-23.1C718.6,288.9,715.2,280.7,709.1,274.5z"/>
	</g>
</g>
</svg>
