<svg width="25" height="21" viewBox="0 0 25 21" fill="none" xmlns="http://www.w3.org/2000/svg">
<path d="M24.75 1.91406L21.0312 19.3047C20.7396 20.5443 20.0651 20.8724 19.0078 20.2891L13.375 16.1328L10.6406 18.7578C10.276 19.1224 9.89323 19.3047 9.49219 19.3047L9.92969 13.5625L20.375 4.15625C20.6302 3.90104 20.6302 3.75521 20.375 3.71875C20.1562 3.64583 19.9193 3.70052 19.6641 3.88281L6.75781 12.0312L1.17969 10.2812C0.559896 10.099 0.268229 9.82552 0.304688 9.46094C0.341146 9.09635 0.723958 8.78646 1.45312 8.53125L23.1641 0.109375C23.7109 -0.0729167 24.1484 0 24.4766 0.328125C24.8047 0.619792 24.8958 1.14844 24.75 1.91406Z" fill="white"/>
</svg>
