<svg width="30" height="31" viewBox="0 0 30 31" fill="none" xmlns="http://www.w3.org/2000/svg">
<path d="M26.0156 3.67969C27.3047 4.8125 28.2227 6.60938 28.7695 9.07031C29.3164 11.4922 29.375 14.5 28.9453 18.0938C28.8281 18.9922 28.6328 19.8125 28.3594 20.5547C28.125 21.2969 27.8516 21.9414 27.5391 22.4883C27.2266 22.9961 26.8555 23.4648 26.4258 23.8945C26.0352 24.3242 25.6445 24.6758 25.2539 24.9492C24.9023 25.1836 24.5117 25.3984 24.082 25.5938C23.6523 25.7891 23.3008 25.9453 23.0273 26.0625C22.7539 26.1406 22.4414 26.2188 22.0898 26.2969C21.7773 26.375 21.6016 26.4141 21.5625 26.4141C21.2891 26.5312 20.8203 26.6484 20.1562 26.7656C19.4922 26.8828 18.4375 27 16.9922 27.1172C15.5469 27.2734 14.1016 27.2734 12.6562 27.1172C11.8359 28.0156 11.25 28.6602 10.8984 29.0508C10.7812 29.168 10.625 29.3242 10.4297 29.5195C10.2344 29.7539 10.0977 29.9102 10.0195 29.9883C9.94141 30.0664 9.80469 30.1836 9.60938 30.3398C9.45312 30.5352 9.33594 30.6328 9.25781 30.6328C9.17969 30.6328 9.04297 30.6719 8.84766 30.75C8.65234 30.8281 8.51562 30.8086 8.4375 30.6914C8.28125 30.6523 8.14453 30.5742 8.02734 30.457C7.91016 30.3398 7.83203 30.2031 7.79297 30.0469C7.75391 29.9297 7.71484 29.793 7.67578 29.6367C7.67578 29.5195 7.67578 29.4219 7.67578 29.3438L7.61719 29.2266L7.67578 26.1797H7.61719C6.79688 25.9453 6.03516 25.6328 5.33203 25.2422C4.62891 24.8125 4.04297 24.3438 3.57422 23.8359C3.14453 23.3281 2.73438 22.7812 2.34375 22.1953C1.99219 21.5703 1.71875 20.9453 1.52344 20.3203C1.36719 19.6953 1.21094 19.0508 1.05469 18.3867C0.9375 17.7227 0.859375 17.0781 0.820312 16.4531C0.820312 15.8281 0.800781 15.2227 0.761719 14.6367C0.761719 14.0508 0.78125 13.5234 0.820312 13.0547C0.898438 8.79688 1.875 5.73047 3.75 3.85547C4.92188 2.80078 6.48438 2.01953 8.4375 1.51172C10.3906 1.00391 12.0703 0.75 13.4766 0.75H15.5273C17.5586 0.789063 19.3945 1.02344 21.0352 1.45312C22.7148 1.84375 23.8672 2.23437 24.4922 2.625C25.1172 2.97656 25.625 3.32812 26.0156 3.67969ZM26.8359 17.5664C27.2266 14.5195 27.1875 11.9414 26.7188 9.83203C26.2891 7.68359 25.5273 6.14062 24.4336 5.20312C24.1602 4.92969 23.7305 4.63672 23.1445 4.32422C22.5586 4.01172 21.543 3.69922 20.0977 3.38672C18.6914 3.07422 17.1289 2.89844 15.4102 2.85938C15.2539 2.85938 15 2.85938 14.6484 2.85938C14.3359 2.85938 13.7305 2.89844 12.832 2.97656C11.9727 3.01563 11.1328 3.11328 10.3125 3.26953C9.53125 3.38672 8.67188 3.64062 7.73438 4.03125C6.79688 4.38281 6.03516 4.85156 5.44922 5.4375C3.84766 7 3.00781 9.55859 2.92969 13.1133C2.96875 13.8164 2.96875 14.5781 2.92969 15.3984C2.89062 16.1797 2.96875 17.0391 3.16406 17.9766C3.35938 18.875 3.61328 19.7344 3.92578 20.5547C4.27734 21.3359 4.84375 22.0781 5.625 22.7812C6.40625 23.4453 7.36328 23.9336 8.49609 24.2461C8.45703 27.332 8.4375 29.0117 8.4375 29.2852C8.4375 29.5586 8.51562 29.7148 8.67188 29.7539C8.82812 29.832 8.98438 29.7734 9.14062 29.5781L13.125 24.9492C14.3359 25.0273 15.5664 25.0273 16.8164 24.9492C18.0664 24.832 18.9844 24.7148 19.5703 24.5977C20.1562 24.4805 20.5664 24.3828 20.8008 24.3047C20.8398 24.3047 21.0156 24.2656 21.3281 24.1875C21.6797 24.1094 21.9727 24.0312 22.207 23.9531C22.4805 23.8359 22.832 23.6797 23.2617 23.4844C23.6914 23.2891 24.0625 23.0352 24.375 22.7227C24.7266 22.3711 25.0781 21.9805 25.4297 21.5508C25.7812 21.082 26.0742 20.5156 26.3086 19.8516C26.543 19.1484 26.7188 18.3867 26.8359 17.5664ZM18.6914 12.8203C18.6914 13.0938 18.5547 13.2305 18.2812 13.2305C18.0469 13.2305 17.9297 13.1133 17.9297 12.8789C17.8516 11.6289 17.207 10.9648 15.9961 10.8867C15.8398 10.8867 15.7227 10.8281 15.6445 10.7109C15.6055 10.5547 15.625 10.418 15.7031 10.3008C15.7812 10.1836 15.8984 10.125 16.0547 10.125C17.7344 10.2031 18.6133 11.1016 18.6914 12.8203ZM19.8633 13.5234C19.9023 12.2344 19.5312 11.1602 18.75 10.3008C17.9688 9.44141 16.8555 8.95312 15.4102 8.83594C15.2539 8.83594 15.1563 8.77734 15.1172 8.66016C15.0781 8.50391 15.0781 8.36719 15.1172 8.25C15.1953 8.13281 15.3125 8.07422 15.4688 8.07422C17.1094 8.19141 18.3789 8.75781 19.2773 9.77344C20.2148 10.7891 20.6641 12.0391 20.625 13.5234C20.625 13.6797 20.5664 13.7969 20.4492 13.875C20.332 13.9141 20.1953 13.9141 20.0391 13.875C19.9219 13.7969 19.8633 13.6797 19.8633 13.5234ZM22.6172 14.2852C22.6172 14.4414 22.5586 14.5586 22.4414 14.6367C22.3242 14.6758 22.1875 14.6758 22.0312 14.6367C21.9141 14.5586 21.8555 14.4414 21.8555 14.2852C21.8555 11.9805 21.1719 10.1836 19.8047 8.89453C18.4766 7.56641 16.7969 6.90234 14.7656 6.90234C14.5312 6.90234 14.4141 6.78516 14.4141 6.55078C14.4141 6.27734 14.5312 6.14062 14.7656 6.14062C17.0312 6.14062 18.9062 6.88281 20.3906 8.36719C21.875 9.8125 22.6172 11.7852 22.6172 14.2852ZM21.9727 20.0273C21.582 20.6914 21.1133 21.2383 20.5664 21.668C20.0195 22.0586 19.4727 22.1562 18.9258 21.9609C18.2617 21.7656 17.3047 21.3359 16.0547 20.6719C14.8438 20.0078 13.8086 19.3438 12.9492 18.6797C12.0117 17.9375 11.1719 17.0977 10.4297 16.1602C9.80469 15.3398 9.21875 14.4414 8.67188 13.4648C8.28125 12.8008 7.94922 12.1953 7.67578 11.6484C7.44141 11.1016 7.28516 10.7109 7.20703 10.4766L7.14844 10.1836C6.95312 9.63672 7.05078 9.08984 7.44141 8.54297C7.87109 7.99609 8.41797 7.52734 9.08203 7.13672C9.62891 6.86328 10.0977 6.94141 10.4883 7.37109C10.957 7.95703 11.3086 8.38672 11.543 8.66016C11.8164 9.05078 12.1094 9.51953 12.4219 10.0664C12.7734 10.7305 12.6953 11.2578 12.1875 11.6484L11.4844 12.1758C11.3672 12.2539 11.2891 12.3711 11.25 12.5273C11.2109 12.6445 11.1914 12.7617 11.1914 12.8789V12.9961C11.2305 13.1133 11.2695 13.2695 11.3086 13.4648C11.3867 13.6211 11.543 13.9531 11.7773 14.4609C12.0508 14.9297 12.3438 15.3789 12.6562 15.8086C13.0078 16.1992 13.4766 16.6094 14.0625 17.0391C14.6875 17.4688 15.3711 17.7812 16.1133 17.9766C16.4648 17.9766 16.7383 17.8594 16.9336 17.625L17.5195 16.9219C17.9102 16.4141 18.418 16.3359 19.043 16.6875C20.1367 17.3125 21.0352 17.957 21.7383 18.6211C22.168 19.0117 22.2461 19.4805 21.9727 20.0273Z" fill="white"/>
</svg>
