<svg width="32" height="20" viewBox="0 0 32 20" fill="none" xmlns="http://www.w3.org/2000/svg">
<path d="M31.0879 1.66406C30.9707 2.25 30.502 3.20703 29.6816 4.53516C28.9004 5.86328 28.1777 7.03516 27.5137 8.05078C26.8496 9.02734 26.498 9.53516 26.459 9.57422C26.2246 9.92578 26.1074 10.1797 26.1074 10.3359C26.1074 10.4922 26.2246 10.7656 26.459 11.1562C26.459 11.1562 26.5762 11.293 26.8105 11.5664C27.084 11.8398 27.3965 12.1523 27.748 12.5039C28.0996 12.8555 28.4902 13.2656 28.9199 13.7344C29.3496 14.2031 29.7402 14.6719 30.0918 15.1406C30.4824 15.5703 30.8145 16.0195 31.0879 16.4883C31.4004 16.957 31.6152 17.3477 31.7324 17.6602C32.0059 18.6367 31.6152 19.125 30.5605 19.125H27.1035C26.8301 19.125 26.5957 19.0859 26.4004 19.0078C26.2051 18.9297 25.9902 18.793 25.7559 18.5977C25.5215 18.4023 25.3066 18.1875 25.1113 17.9531C24.916 17.7188 24.623 17.3867 24.2324 16.957C23.8418 16.5273 23.4512 16.1172 23.0605 15.7266C21.498 14.2422 20.3457 13.5 19.6035 13.5C19.1348 13.5 18.8613 13.6367 18.7832 13.9102C18.7051 14.1836 18.666 14.9648 18.666 16.2539C18.7051 16.8789 18.7246 17.3867 18.7246 17.7773C18.7246 18.2461 18.5684 18.5977 18.2559 18.832C17.9434 19.0273 17.2598 19.125 16.2051 19.125C14.3691 19.125 12.5137 18.5781 10.6387 17.4844C8.76367 16.3906 7.12305 14.8281 5.7168 12.7969C4.38867 11 3.27539 9.22266 2.37695 7.46484C1.51758 5.66797 0.951172 4.30078 0.677734 3.36328C0.404297 2.42578 0.267578 1.76172 0.267578 1.37109C0.267578 0.707031 0.658203 0.375 1.43945 0.375H4.89648C5.32617 0.375 5.63867 0.472656 5.83398 0.667969C6.06836 0.863281 6.26367 1.21484 6.41992 1.72266C7.24023 4.10547 8.23633 6.23438 9.4082 8.10938C10.6191 9.98438 11.5371 10.9219 12.1621 10.9219C12.3965 10.9219 12.5527 10.8438 12.6309 10.6875C12.748 10.4922 12.8066 10.1406 12.8066 9.63281V4.53516C12.7676 3.98828 12.6699 3.51953 12.5137 3.12891C12.3574 2.73828 12.2012 2.46484 12.0449 2.30859C11.8887 2.11328 11.7324 1.91797 11.5762 1.72266C11.459 1.52734 11.4004 1.35156 11.4004 1.19531C11.4004 1.03906 11.4395 0.902344 11.5176 0.785156C11.5957 0.667969 11.6934 0.570312 11.8105 0.492188C11.9668 0.414063 12.123 0.375 12.2793 0.375H17.7285C18.3535 0.375 18.666 0.804687 18.666 1.66406V8.46094C18.666 9.125 18.8418 9.45703 19.1934 9.45703C19.584 9.45703 20.1309 9.10547 20.834 8.40234C21.5762 7.58203 22.2988 6.58594 23.002 5.41406C23.7051 4.24219 24.2324 3.26562 24.584 2.48438L25.1113 1.37109C25.3848 0.707031 25.873 0.375 26.5762 0.375H30.0332C30.9707 0.375 31.3223 0.804687 31.0879 1.66406Z" fill="white"/>
</svg>
