<svg width="27" height="27" viewBox="0 0 27 27" fill="none" xmlns="http://www.w3.org/2000/svg">
<path d="M22.6992 4.43359C25.3164 7.05078 26.625 10.1172 26.625 13.6328C26.625 17.2266 25.3359 20.293 22.7578 22.832C20.1797 25.3711 17.0938 26.6406 13.5 26.6406C11.2734 26.6406 9.20312 26.1133 7.28906 25.0586L0.375 26.875L2.25 20.1367C1.07812 18.1445 0.492188 15.9766 0.492188 13.6328C0.492188 10.0391 1.76172 6.97266 4.30078 4.43359C6.83984 1.89453 9.90625 0.625 13.5 0.625C17.0938 0.625 20.1602 1.89453 22.6992 4.43359ZM13.5 24.4727C16.4688 24.4727 19.0273 23.418 21.1758 21.3086C23.3242 19.1602 24.3984 16.6016 24.3984 13.6328C24.4375 10.7422 23.3438 8.20312 21.1172 6.01562C19.0078 3.90625 16.4688 2.85156 13.5 2.85156C10.5312 2.85156 7.97266 3.90625 5.82422 6.01562C3.71484 8.125 2.66016 10.6641 2.66016 13.6328C2.66016 15.7031 3.22656 17.6172 4.35938 19.375L4.59375 19.7852L3.48047 23.7695L7.58203 22.7148L7.99219 22.9492C9.67188 23.9648 11.5078 24.4727 13.5 24.4727ZM19.418 16.3281C19.8086 16.5234 20.0234 16.6602 20.0625 16.7383C20.1797 16.9727 20.1016 17.5 19.8281 18.3203C19.7109 18.6328 19.3984 18.9648 18.8906 19.3164C18.4219 19.6289 18.0117 19.8047 17.6602 19.8438C16.6445 20 15.3359 19.7266 13.7344 19.0234C11.8203 18.2031 9.98438 16.5625 8.22656 14.1016C7.32812 12.8906 6.87891 11.7773 6.87891 10.7617C6.87891 9.78516 7.25 8.86719 7.99219 8.00781C8.26562 7.77344 8.55859 7.65625 8.87109 7.65625C9.18359 7.65625 9.39844 7.65625 9.51562 7.65625C9.86719 7.65625 10.1016 7.83203 10.2188 8.18359C10.8828 9.78516 11.2148 10.5859 11.2148 10.5859C11.332 10.8203 11.3516 11.0156 11.2734 11.1719C11.1172 11.5234 10.9219 11.8359 10.6875 12.1094C10.4531 12.3438 10.3164 12.4805 10.2773 12.5195C10.2383 12.5586 10.2578 12.6953 10.3359 12.9297C10.8828 13.9453 11.4688 14.707 12.0938 15.2148C12.7578 15.7227 13.6367 16.25 14.7305 16.7969C15.043 16.9531 15.2773 16.9336 15.4336 16.7383C15.9414 16.1523 16.293 15.7227 16.4883 15.4492C16.6445 15.2148 16.8789 15.1562 17.1914 15.2734C17.5039 15.3906 18.2461 15.7422 19.418 16.3281Z" fill="white"/>
</svg>
